<svg width="157" height="157" viewBox="0 0 157 157" fill="none" xmlns="http://www.w3.org/2000/svg">
<path fill-rule="evenodd" clip-rule="evenodd" d="M87.336 129.832C87.3449 129.816 87.3449 129.797 87.336 129.781V129.781C87.3271 129.765 87.3271 129.746 87.336 129.73L103.641 100.536C104.525 98.9544 106.195 97.9743 108.006 97.9743H111.658C114.42 97.9743 116.658 100.213 116.658 102.974V106.874C116.658 109.635 118.897 111.874 121.658 111.874H127.477C130.238 111.874 132.477 109.635 132.477 106.874L132.477 97.9743L132.477 86.6221C132.477 83.8607 130.238 81.6221 127.477 81.6221H116.658V81.6221C115.559 81.6221 114.865 80.4399 115.401 79.4802L134.591 45.1215C136.452 41.7887 134.043 37.6834 130.226 37.6834L37.756 37.6834C34.9945 37.6834 32.756 35.4448 32.756 32.6834L32.756 26.991C32.756 24.2296 34.9945 21.991 37.756 21.991L144.575 21.991C146.387 21.991 148.057 21.0109 148.941 19.4291L155.626 7.45979C157.487 4.12696 155.078 0.0217081 151.26 0.0217071L5.27627 0.0216675C1.45885 0.0216664 -0.950453 4.12692 0.910982 7.45975L31.26 61.7985C32.1435 63.3803 33.8135 64.3605 35.6253 64.3605L74.634 64.3605C76.8007 64.3605 78.5571 66.1169 78.5571 68.2836V68.2836C78.5571 70.4502 76.8007 72.2067 74.634 72.2067L43.7577 72.2067C40.7625 72.2067 38.8721 75.4277 40.3326 78.0427V78.0427C41.0258 79.2839 42.3362 80.0529 43.7577 80.0529L66.4697 80.0529C68.6364 80.0529 70.3928 81.8093 70.3928 83.976V83.976C70.3928 86.1427 68.6364 87.8991 66.4697 87.8991L52.5222 87.8991C49.527 87.8991 47.6366 91.1201 49.0971 93.7352V93.7352C49.7903 94.9763 51.1006 95.7453 52.5222 95.7453H58.9818C61.1485 95.7453 62.9049 97.5017 62.9049 99.6684V99.6684C62.9049 101.835 61.1485 103.591 58.9818 103.591L46.3601 103.591C44.5483 103.591 42.8783 104.572 41.9948 106.153L30.1459 127.368C29.2996 128.884 29.2996 130.729 30.1459 132.245L41.9948 153.46C42.8783 155.042 44.5483 156.022 46.3601 156.022L69.7743 156.022C71.5861 156.022 73.2562 155.041 74.1396 153.46L87.336 129.832ZM47.8637 116.153C48.7471 114.572 50.4172 113.591 52.229 113.591H57.2527C59.0645 113.591 60.7345 114.572 61.618 116.153L71.2082 133.324C72.0545 134.839 72.0545 136.685 71.2082 138.2L68.2708 143.46C67.3873 145.041 65.7173 146.022 63.9055 146.022L52.229 146.022C50.4172 146.022 48.7471 145.042 47.8637 143.46L41.5999 132.245C40.7536 130.729 40.7536 128.884 41.5999 127.368L47.8637 116.153ZM131.415 123.849C133.29 125.787 133.29 128.863 131.415 130.801L128.348 133.972C126.383 136.003 123.126 136.003 121.161 133.972L118.094 130.801C116.219 128.863 116.219 125.787 118.094 123.849L121.161 120.678C123.126 118.647 126.383 118.647 128.348 120.678L131.415 123.849Z" fill="url(#paint0_linear)"/>
<defs>
<linearGradient id="paint0_linear" x1="78.2683" y1="0.0216675" x2="78.2683" y2="156.022" gradientUnits="userSpaceOnUse">
<stop stop-color="#FF6B00"/>
<stop offset="1" stop-color="#C5005E"/>
</linearGradient>
</defs>
</svg>
