<svg width="256" height="256" viewBox="0 0 256 256" fill="none" xmlns="http://www.w3.org/2000/svg">
<path fill-rule="evenodd" clip-rule="evenodd" d="M94.9208 4.36233C105.726 1.4666 116.864 -2.19061e-06 128.05 0V64.0123C122.457 64.0123 116.888 64.7456 111.485 66.1934L94.9208 4.36233ZM192 17.1024C182.313 11.5083 171.934 7.20844 161.129 4.31271L144.564 66.1438C149.967 67.5917 155.156 69.7416 160 72.5387L192 17.1024ZM238.851 191.987C250.086 172.525 256 150.448 256 127.975H192C192 139.211 189.043 150.25 183.426 159.981C177.808 169.712 169.729 177.793 160 183.411C150.271 189.029 139.234 191.987 128 191.987C116.766 191.987 105.729 189.029 96 183.411C86.2708 177.793 78.1915 169.712 72.5744 159.981C66.9572 150.25 64 139.211 64 127.975C64 116.738 66.9572 105.7 72.5744 95.9685C78.1916 86.2374 86.2708 78.1567 96 72.5384L64 17.1022C44.5416 28.3387 28.3831 44.5002 17.1488 63.9624C5.91441 83.4246 1.96428e-06 105.502 0 127.975C-1.96427e-06 150.448 5.9144 172.525 17.1487 191.987C28.3831 211.449 44.5415 227.611 64 238.847C83.4585 250.084 105.531 255.999 128 255.999C150.469 255.999 172.542 250.084 192 238.847C211.458 227.611 227.617 211.449 238.851 191.987ZM251.688 94.8894C245.873 73.1821 234.447 53.3884 218.559 37.4976L173.305 82.7611C181.248 90.7065 186.961 100.603 189.869 111.457L251.688 94.8894Z" fill="#FF6B00"/>
</svg>
