<svg width="256" height="256" viewBox="0 0 256 256" fill="none" xmlns="http://www.w3.org/2000/svg">
<path d="M256 128C256 150.816 249.902 173.217 238.336 192.884C226.771 212.551 210.159 228.769 190.22 239.86C170.281 250.951 147.74 256.51 124.931 255.963C102.122 255.416 79.8738 248.783 60.4895 236.749C41.1053 224.715 25.2898 207.719 14.6804 187.52C4.07105 167.321 -0.946528 144.654 0.147141 121.864C1.24081 99.0749 8.40598 76.9919 20.9008 57.9017C33.3957 38.8116 50.766 23.4081 71.2135 13.286L107.536 86.6608C100.167 90.3085 93.9077 95.8594 89.4049 102.739C84.9022 109.618 82.3201 117.576 81.926 125.789C81.5319 134.001 83.34 142.17 87.1633 149.449C90.9866 156.728 96.686 162.853 103.671 167.19C110.657 171.526 118.674 173.917 126.894 174.114C135.114 174.311 143.237 172.307 150.422 168.311C157.607 164.314 163.594 158.469 167.762 151.382C171.929 144.295 174.127 136.222 174.127 128H256Z" fill="#FB923C"/>
</svg>
