<svg width="100%" height="100%" viewBox="0 0 100% 100%" fill="none" xmlns="http://www.w3.org/2000/svg">
<path fill-rule="evenodd" clip-rule="evenodd" d="M189.842 8.72465C211.452 2.9332 233.727 -4.38122e-06 256.099 0V128.025C244.913 128.025 233.775 129.491 222.971 132.387L189.842 8.72465ZM384 34.2049C364.625 23.0166 343.868 14.4169 322.258 8.62543L289.129 132.288C299.934 135.183 310.313 139.483 320 145.077L384 34.2049ZM477.703 383.975C500.171 345.051 512 300.897 512 255.951H384C384 278.424 378.086 300.501 366.851 319.963C355.617 339.425 339.458 355.587 320 366.823C300.542 378.06 278.469 383.975 256 383.975C233.531 383.975 211.458 378.06 192 366.823C172.542 355.587 156.383 339.425 145.149 319.963C133.914 300.501 128 278.424 128 255.951C128 233.478 133.914 211.401 145.149 191.939C156.383 172.476 172.542 156.315 192 145.078L128 34.2058C89.0831 56.6788 56.7662 89.0019 34.2975 127.926C11.8288 166.851 3.92855e-06 211.005 0 255.951C-3.92855e-06 300.897 11.8288 345.051 34.2975 383.975C56.7662 422.9 89.0831 455.223 128 477.696C166.917 500.169 211.063 512 256 512C300.937 512 345.083 500.169 384 477.696C422.917 455.223 455.234 422.9 477.703 383.975ZM503.376 189.779C491.746 146.364 468.894 106.777 437.119 74.9951L346.609 165.522C362.497 181.413 373.923 201.207 379.738 222.914L503.376 189.779Z" fill="currentColor"/>
</svg>
