<svg width="150" height="31" viewBox="0 0 150 31" fill="none" xmlns="http://www.w3.org/2000/svg">
<path fill-rule="evenodd" clip-rule="evenodd" d="M18.3515 25.8647C18.3533 25.8616 18.3533 25.8578 18.3515 25.8547C18.3497 25.8516 18.3497 25.8478 18.3515 25.8447L21.651 20.2066C21.8644 19.8421 22.2551 19.618 22.6776 19.618H23.1867C23.8435 19.618 24.3761 20.1505 24.3761 20.8074V21.154C24.3761 21.8109 24.9086 22.3434 25.5655 22.3434H26.4368C27.0937 22.3434 27.6262 21.8109 27.6262 21.154L27.6262 19.618L27.6262 17.601C27.6262 16.9441 27.0937 16.4116 26.4368 16.4116H25.9462C25.0275 16.4116 24.4556 15.4144 24.9196 14.6215L27.8664 9.5862C28.3305 8.79329 27.7586 7.79604 26.8399 7.79604L8.32677 7.79604C7.66988 7.79604 7.13736 7.26352 7.13736 6.60664L7.13737 5.90844C7.13737 5.25156 7.66988 4.71904 8.32677 4.71904L30.0328 4.71905C30.4553 4.71905 30.846 4.49499 31.0594 4.1304L32.1883 2.20142C32.6523 1.40851 32.0804 0.411263 31.1617 0.411262L1.8151 0.411255C0.896381 0.411255 0.32453 1.4085 0.788569 2.20142L6.77951 12.4383C6.99287 12.8029 7.38361 13.0269 7.80604 13.0269L15.7785 13.0269C16.2033 13.0269 16.5477 13.3713 16.5477 13.7962C16.5477 14.221 16.2033 14.5654 15.7785 14.5654L9.36586 14.5654C8.77168 14.5654 8.40183 15.2104 8.70195 15.7232C8.83995 15.959 9.09266 16.1039 9.36586 16.1039L14.101 16.1039C14.5259 16.1039 14.8703 16.4483 14.8703 16.8732C14.8703 17.298 14.5259 17.6424 14.101 17.6424H11.1666C10.5724 17.6424 10.2026 18.2874 10.5027 18.8002C10.6407 19.036 10.8934 19.1809 11.1666 19.1809H12.5625C12.9874 19.1809 13.3318 19.5253 13.3318 19.9502C13.3318 20.375 12.9874 20.7194 12.5625 20.7194L10.0116 20.7194C9.58921 20.7194 9.19847 20.9435 8.98511 21.3081L6.67291 25.259C6.45575 25.63 6.45575 26.0894 6.67291 26.4605L8.9851 30.4114C9.19847 30.776 9.5892 31 10.0116 31H14.6641C15.0865 31 15.4773 30.776 15.6906 30.4114L18.3515 25.8647ZM10.3492 23.6869C10.5625 23.3223 10.9533 23.0982 11.3757 23.0982H12.336C12.7584 23.0982 13.1492 23.3223 13.3625 23.6869L14.7646 26.0826C14.9817 26.4537 14.9817 26.913 14.7646 27.2841L14.3266 28.0326C14.1132 28.3972 13.7225 28.6212 13.3 28.6212L11.3757 28.6212C10.9533 28.6212 10.5625 28.3972 10.3492 28.0326L9.42914 26.4605C9.21198 26.0894 9.21198 25.63 9.42914 25.259L10.3492 23.6869Z" fill="currentColor"/>
<path d="M27.2408 24.5264C27.7129 24.9922 27.7129 25.7541 27.2408 26.2199L26.8749 26.5808C26.4117 27.0377 25.6674 27.0377 25.2042 26.5808L24.8384 26.2199C24.3662 25.7541 24.3662 24.9922 24.8384 24.5264L25.2042 24.1655C25.6674 23.7086 26.4117 23.7086 26.8749 24.1655L27.2408 24.5264Z" fill="currentColor"/>
<path d="M46.6447 17.8674C47.4113 18.2856 48.236 18.4947 49.1187 18.4947C50.954 18.4947 51.8716 17.2054 51.8716 14.6268C51.8716 12.4354 50.8572 11.3397 48.8284 11.3397C47.9533 11.3397 47.2255 11.3939 46.6447 11.5023V17.8674ZM43.5667 9.35344C45.185 9.02047 46.8964 8.85398 48.7006 8.85398C52.8434 8.85398 54.9148 10.786 54.9148 14.65C54.9148 18.9167 52.9866 21.05 49.1304 21.05C48.3095 21.05 47.481 20.8564 46.6447 20.4692V25.4638H43.5667V9.35344Z" fill="currentColor"/>
<path d="M62.395 8.85398C66.0964 8.85398 67.9471 10.7434 67.9471 14.5222C67.9471 15.0256 67.9122 15.5289 67.8425 16.0322H59.7467C59.7467 17.7513 61.0089 18.6108 63.5333 18.6108C64.7645 18.6108 65.9957 18.4947 67.2269 18.2623V20.7015C66.1506 20.9339 64.8419 21.05 63.301 21.05C58.8794 21.05 56.6687 18.9709 56.6687 14.8126C56.6687 10.8402 58.5774 8.85398 62.395 8.85398ZM59.7467 13.895H64.9503V13.8021C64.9503 12.114 64.0986 11.27 62.395 11.27C60.7688 11.27 59.8861 12.145 59.7467 13.895Z" fill="currentColor"/>
<path d="M70.2585 21.05V8.85398H72.6396L73.0229 10.4104C74.0916 9.3728 75.2221 8.85398 76.4146 8.85398V11.3397C75.2686 11.3397 74.2425 11.8159 73.3366 12.7683V21.05H70.2585Z" fill="currentColor"/>
<path d="M87.1587 20.7015C86.1521 20.9339 85.1067 21.05 84.0226 21.05C79.6862 21.05 77.5181 18.9399 77.5181 14.7197C77.5181 10.8092 79.6862 8.85398 84.0226 8.85398C85.1067 8.85398 86.1521 8.97014 87.1587 9.20244V11.6416C86.1521 11.4093 85.1841 11.2932 84.2549 11.2932C81.8157 11.2932 80.5961 12.4354 80.5961 14.7197C80.5961 17.3138 81.8157 18.6108 84.2549 18.6108C85.1841 18.6108 86.1521 18.4947 87.1587 18.2623V20.7015Z" fill="currentColor"/>
<path d="M91.6887 14.9055C91.6887 17.4531 92.676 18.727 94.6506 18.727C96.6252 18.727 97.6124 17.4531 97.6124 14.9055C97.6124 12.4199 96.6252 11.177 94.6506 11.177C92.676 11.177 91.6887 12.4199 91.6887 14.9055ZM88.6106 14.952C88.6106 10.8634 90.6239 8.81914 94.6506 8.81914C98.6772 8.81914 100.69 10.8634 100.69 14.952C100.69 19.0328 98.6772 21.0732 94.6506 21.0732C90.6394 21.0732 88.6261 19.0328 88.6106 14.952Z" fill="currentColor"/>
<path d="M106.092 4.44019V21.05H103.014V4.44019H106.092Z" fill="currentColor"/>
<path d="M108.426 17.2518C108.426 14.8281 110.192 13.6162 113.723 13.6162C114.551 13.6162 115.38 13.6937 116.208 13.8485V12.9309C116.208 11.8391 115.423 11.2932 113.851 11.2932C112.519 11.2932 111.04 11.4868 109.414 11.874V9.43475C111.04 9.04757 112.519 8.85398 113.851 8.85398C117.475 8.85398 119.287 10.1936 119.287 12.8729V21.05H117.498L116.406 19.9582C115.345 20.6861 114.176 21.05 112.898 21.05C109.917 21.05 108.426 19.7839 108.426 17.2518ZM116.208 15.9393C115.434 15.7844 114.606 15.707 113.723 15.707C112.244 15.707 111.504 16.2103 111.504 17.217C111.504 18.3011 112.124 18.8431 113.363 18.8431C114.385 18.8431 115.333 18.5256 116.208 17.8907V15.9393Z" fill="currentColor"/>
<path d="M122.028 6.87939H124.304L124.769 8.85398H127.835V11.2932H125.106V16.9034C125.106 18.0417 125.597 18.6108 126.581 18.6108H127.835V21.05H125.094C123.05 21.05 122.028 19.9543 122.028 17.7629V6.87939Z" fill="currentColor"/>
<path d="M132.435 14.9055C132.435 17.4531 133.422 18.727 135.397 18.727C137.371 18.727 138.359 17.4531 138.359 14.9055C138.359 12.4199 137.371 11.177 135.397 11.177C133.422 11.177 132.435 12.4199 132.435 14.9055ZM129.357 14.952C129.357 10.8634 131.37 8.81914 135.397 8.81914C139.424 8.81914 141.437 10.8634 141.437 14.952C141.437 19.0328 139.424 21.0732 135.397 21.0732C131.386 21.0732 129.372 19.0328 129.357 14.952Z" fill="currentColor"/>
<path d="M143.76 21.05V8.85398H146.141L146.524 10.4104C147.593 9.3728 148.723 8.85398 149.916 8.85398V11.3397C148.77 11.3397 147.744 11.8159 146.838 12.7683V21.05H143.76Z" fill="currentColor"/>
</svg>
