<svg width="511" height="511" viewBox="0 0 511 511" fill="none" xmlns="http://www.w3.org/2000/svg">
<path d="M0 0H511V511H0V0Z" fill="url(#paint0_linear)"/>
<path d="M426.067 255.182C426.067 285.167 418.174 314.624 403.182 340.591C388.189 366.559 366.626 388.122 340.658 403.115C314.69 418.107 285.234 426 255.249 426C225.264 426 195.808 418.107 169.84 403.115C143.873 388.122 122.309 366.559 107.317 340.591C92.3242 314.624 84.4314 285.167 84.4314 255.182C84.4314 225.197 92.3243 195.741 107.317 169.773C122.309 143.806 143.873 122.242 169.84 107.25L212.545 181.216C199.561 188.712 188.779 199.494 181.283 212.478C173.787 225.462 169.84 240.19 169.84 255.182C169.84 270.175 173.787 284.903 181.283 297.887C188.779 310.87 199.561 321.652 212.545 329.149C225.529 336.645 240.257 340.591 255.249 340.591C270.242 340.591 284.97 336.645 297.954 329.149C310.937 321.652 321.719 310.87 329.215 297.887C336.712 284.903 340.658 270.175 340.658 255.182H426.067Z" fill="white"/>
<path d="M299.46 90.1842C313.879 94.0479 327.73 99.785 340.658 107.249L297.954 181.215C291.49 177.483 284.564 174.615 277.355 172.683L299.46 90.1842Z" fill="white"/>
<path d="M211.105 90.2504C225.524 86.3868 240.387 84.4299 255.315 84.4299L255.315 169.839C247.851 169.839 240.42 170.817 233.21 172.749L211.105 90.2504Z" fill="white"/>
<path d="M376.102 134.461C397.304 155.664 412.552 182.074 420.313 211.037L337.814 233.142C333.934 218.661 326.31 205.456 315.709 194.855L376.102 134.461Z" fill="white"/>
<defs>
<linearGradient id="paint0_linear" x1="255.5" y1="0" x2="255.5" y2="511" gradientUnits="userSpaceOnUse">
<stop stop-color="#FF6B00"/>
<stop offset="1" stop-color="#FF4D00"/>
</linearGradient>
</defs>
</svg>
