<svg width="364" height="304" viewBox="0 0 364 304" fill="none" xmlns="http://www.w3.org/2000/svg">
<path fill-rule="evenodd" clip-rule="evenodd" d="M76.7445 1.05394C39.6028 -4.5642 5.18087 21.9104 0.525593 59.6753C-3.71291 94.0593 18.1431 125.03 49.5005 133.538C52.4433 134.337 54.5992 137.002 54.5003 140.088L53.0246 186.163C52.4604 203.779 66.3984 218.371 83.79 218.371H287.766C305.251 218.371 319.225 203.628 318.523 185.922L316.613 137.773C316.5 134.932 318.311 132.401 320.932 131.384C349.174 120.435 367.88 90.7327 363.315 58.3252C358.068 21.0829 323.949 -4.74169 287.224 0.731788L201.764 13.4685C187.421 15.6062 172.845 15.5904 158.506 13.4214L76.7445 1.05394ZM126.204 99.8263C117.704 99.8263 110.814 106.81 110.814 115.424V159.358C110.814 167.972 117.704 174.956 126.204 174.956C134.705 174.956 141.595 167.972 141.595 159.358V115.424C141.595 106.81 134.705 99.8263 126.204 99.8263ZM187.768 174.956C179.268 174.956 172.377 167.972 172.377 159.358V115.424C172.377 106.81 179.268 99.8263 187.768 99.8263C196.268 99.8263 203.158 106.81 203.158 115.424V159.358C203.158 167.972 196.268 174.956 187.768 174.956ZM249.331 99.8263C240.831 99.8263 233.94 106.81 233.94 115.424V159.358C233.94 167.972 240.831 174.956 249.331 174.956C257.831 174.956 264.721 167.972 264.721 159.358V115.424C264.721 106.81 257.831 99.8263 249.331 99.8263Z" fill="#FF6B00"/>
<path d="M50.2821 271.792C50.6789 259.402 60.704 249.567 72.9355 249.567H299.337C311.466 249.567 321.432 259.269 321.919 271.551C322.622 289.257 308.648 304 291.163 304H81.0474C63.6559 304 49.7178 289.408 50.2821 271.792Z" fill="#FF6B00"/>
</svg>
