<svg width="108" height="108" viewBox="0 0 108 108" fill="none" xmlns="http://www.w3.org/2000/svg">
<path d="M108 54C108 63.6254 105.427 73.0758 100.548 81.3729C95.6689 89.67 88.6607 96.5121 80.2491 101.191C71.8374 105.87 62.328 108.215 52.7054 107.984C43.0828 107.754 33.6967 104.955 25.519 99.8785C17.3413 94.8018 10.6691 87.6316 6.1933 79.1101C1.71748 70.5887 -0.399317 61.0258 0.0620752 51.4115C0.523467 41.7972 3.54627 32.481 8.81754 24.4273C14.0888 16.3736 21.4169 9.87528 30.0432 5.60504L45.3667 36.56C42.2581 38.0989 39.6173 40.4407 37.7177 43.343C35.8181 46.2452 34.7288 49.6025 34.5625 53.0672C34.3963 56.5319 35.1591 59.978 36.772 63.0489C38.385 66.1197 40.7894 68.7036 43.7364 70.5331C46.6834 72.3626 50.0658 73.3711 53.5335 73.4543C57.0011 73.5374 60.428 72.6922 63.4593 71.0061C66.4906 69.32 69.0161 66.8543 70.7744 63.8643C72.5327 60.8743 73.4598 57.4687 73.4598 54H108Z" fill="#FB923C"/>
</svg>
