<svg width="152" height="183" viewBox="0 0 152 183" fill="none" xmlns="http://www.w3.org/2000/svg">
<path fill-rule="evenodd" clip-rule="evenodd" d="M76.2371 2.45246C76.2371 1.34789 77.1329 0.449702 78.2371 0.478839C90.1847 0.79411 101.889 3.93033 112.394 9.63112C113.365 10.158 113.691 11.3837 113.139 12.3403L96.188 41.7002C95.6358 42.6568 94.4147 42.9794 93.4304 42.4783C88.7063 40.0737 83.5298 38.6867 78.2363 38.4071C77.1332 38.3488 76.2371 37.4589 76.2371 36.3543V2.45246ZM39.2937 12.3403C38.7414 11.3837 39.068 10.158 40.0388 9.63119C44.6852 7.1096 49.5828 5.08097 54.6513 3.57847C55.7104 3.26454 56.8079 3.90032 57.0938 4.96726L65.8682 37.714C66.1541 38.7809 65.5189 39.8724 64.4686 40.2142C62.5903 40.8253 60.7626 41.5824 59.0023 42.4784C58.0179 42.9794 56.7969 42.6568 56.2447 41.7002L39.2937 12.3403ZM128.383 24.0692C129.164 23.2882 130.433 23.2865 131.193 24.0878C139.877 33.2423 146.145 44.4285 149.417 56.6369C152.861 69.4899 152.861 83.0229 149.417 95.8758C145.973 108.729 139.206 120.449 129.797 129.858C128.749 130.906 127.672 131.921 126.569 132.903L77.5546 181.917C76.7736 182.698 75.5073 182.698 74.7262 181.917L24.6063 131.797C23.9246 131.163 23.2539 130.517 22.5945 129.858C13.1855 120.449 6.41897 108.729 2.97504 95.8758C-0.296187 83.6674 -0.460232 70.8455 2.4829 58.5755C2.74054 57.5014 3.83996 56.8687 4.90689 57.1545L37.6536 65.929C38.7205 66.2149 39.3482 67.3108 39.119 68.3913C37.8808 74.228 38.0363 80.2847 39.5854 86.0661C41.3074 92.4926 44.6907 98.3525 49.3952 103.057C49.4915 103.153 49.5882 103.249 49.6855 103.344L74.7262 78.3035C75.5073 77.5224 76.7736 77.5224 77.5546 78.3035L102.65 103.399C102.766 103.286 102.882 103.172 102.997 103.057C107.701 98.3526 111.084 92.4926 112.806 86.0661C114.528 79.6396 114.528 72.8731 112.806 66.4466C111.257 60.6652 108.363 55.3422 104.373 50.9066C103.634 50.0854 103.63 48.8225 104.411 48.0415L128.383 24.0692ZM11.6119 36.6357C11.0345 37.5773 11.3646 38.8021 12.3212 39.3543L41.6811 56.3053C42.6376 56.8576 43.8564 56.5265 44.4583 55.6004C45.5348 53.9443 46.7391 52.3748 48.0602 50.9064C48.7989 50.0853 48.8033 48.8224 48.0222 48.0413L24.05 24.0691C23.2689 23.288 22.0005 23.2862 21.2403 24.0876C17.6021 27.9231 14.375 32.1287 11.6119 36.6357Z" fill="#FF6B00"/>
</svg>
