<svg width="120" height="24" viewBox="0 0 120 24" fill="none" xmlns="http://www.w3.org/2000/svg">
<path d="M33.1333 13.3706C33.8729 13.7738 34.6685 13.9754 35.5201 13.9754C37.2906 13.9754 38.1759 12.7321 38.1759 10.2456C38.1759 8.1324 37.1973 7.0758 35.24 7.0758C34.3958 7.0758 33.6936 7.12807 33.1333 7.23261V13.3706ZM30.1638 5.1605C31.7251 4.83941 33.3761 4.67887 35.1167 4.67887C39.1134 4.67887 41.1118 6.54191 41.1118 10.268C41.1118 14.3823 39.2516 16.4395 35.5313 16.4395C34.7395 16.4395 33.9401 16.2528 33.1333 15.8795V20.6958H30.1638V5.1605Z" fill="white"/>
<path d="M41.9634 4.67887H45.1122L48.0817 13.1465L50.984 4.67887H54.0768L49.1911 16.7867C48.3245 18.9223 46.9388 20.4419 45.0338 21.3454L43.5995 19.3181C44.9143 18.7431 45.8705 17.806 46.4681 16.5067L41.9634 4.67887Z" fill="white"/>
<path d="M55.4887 16.4395V4.67887H57.7859L58.1557 6.17975C59.1866 5.17917 60.2773 4.67887 61.4277 4.67887V7.0758C60.3221 7.0758 59.3323 7.53503 58.4582 8.45348V16.4395H55.4887Z" fill="white"/>
<path d="M65.5178 10.5144C65.5178 12.9711 66.4703 14.1994 68.3753 14.1994C70.2803 14.1994 71.2327 12.9711 71.2327 10.5144C71.2327 8.11746 70.2803 6.919 68.3753 6.919C66.4703 6.919 65.5178 8.11746 65.5178 10.5144ZM62.5483 10.5592C62.5483 6.61658 64.4906 4.64527 68.3753 4.64527C72.2599 4.64527 74.2023 6.61658 74.2023 10.5592C74.2023 14.4943 72.2599 16.4619 68.3753 16.4619C64.5056 16.4619 62.5633 14.4943 62.5483 10.5592Z" fill="white"/>
<path d="M76.4434 16.4395V4.67887H78.7406L79.0879 6.38137C80.1413 5.24637 81.4075 4.67887 82.8867 4.67887C84.3658 4.67887 85.3781 5.2165 85.9234 6.29176C87.1262 5.2165 88.3849 4.67887 89.6998 4.67887C92.4041 4.67887 93.7562 6.16855 93.7562 9.14792V16.4395H90.7867V9.03591C90.7867 7.72917 90.1965 7.0758 89.0162 7.0758C88.1347 7.0758 87.2868 7.47156 86.4725 8.26307V16.4395H83.503V9.06951C83.503 7.74037 82.9576 7.0758 81.867 7.0758C81.0004 7.0758 80.1824 7.47156 79.4129 8.26307V16.4395H76.4434Z" fill="white"/>
<path d="M96.0086 12.7769C96.0086 10.4397 97.7118 9.27113 101.118 9.27113C101.918 9.27113 102.717 9.3458 103.516 9.49514V8.61029C103.516 7.55743 102.758 7.031 101.242 7.031C99.9567 7.031 98.5299 7.21768 96.9611 7.59103V5.2389C98.5299 4.86555 99.9567 4.67887 101.242 4.67887C104.738 4.67887 106.486 5.97068 106.486 8.55429V16.4395H104.76L103.707 15.3867C102.683 16.0886 101.555 16.4395 100.323 16.4395C97.4466 16.4395 96.0086 15.2187 96.0086 12.7769ZM103.516 11.5112C102.769 11.3619 101.97 11.2872 101.118 11.2872C99.6915 11.2872 98.9781 11.7726 98.9781 12.7433C98.9781 13.7887 99.5757 14.3114 100.771 14.3114C101.757 14.3114 102.672 14.0053 103.516 13.393V11.5112Z" fill="white"/>
<path d="M109.299 16.4395V4.67887H111.596L111.966 6.40377C113.094 5.25384 114.378 4.67887 115.82 4.67887C118.607 4.67887 120 6.12748 120 9.02471V16.4395H117.03V9.02471C117.03 7.72544 116.384 7.0758 115.092 7.0758C114.128 7.0758 113.187 7.46036 112.268 8.22947V16.4395H109.299Z" fill="white"/>
<path d="M10.0266 0.375292C10.0266 0.164145 10.198 -0.00778437 10.409 0.000272062C11.9082 0.0574886 13.3755 0.450468 14.7024 1.15015C14.8892 1.24867 14.9516 1.48319 14.846 1.66605L12.7232 5.34119C12.6176 5.52405 12.3842 5.58526 12.1937 5.49394C11.6335 5.22536 11.0282 5.06324 10.4088 5.01588C10.1981 4.99978 10.0266 4.83013 10.0266 4.61898L10.0266 0.375292Z" fill="white"/>
<path d="M5.2018 1.66605C5.09618 1.48319 5.15854 1.24868 5.34537 1.15016C5.89372 0.861021 6.46772 0.623368 7.06 0.440259C7.26181 0.377868 7.4718 0.499621 7.52648 0.703573L8.62532 4.80266C8.68 5.00662 8.55828 5.21485 8.359 5.28489C8.18701 5.34534 8.01845 5.41513 7.85408 5.49394C7.66361 5.58526 7.43023 5.52405 7.32461 5.34119L5.2018 1.66605Z" fill="white"/>
<path d="M16.8368 3.19715C16.9862 3.04784 17.2289 3.04736 17.3725 3.20225C18.4786 4.39567 19.2787 5.84202 19.7009 7.41715C20.1562 9.11552 20.1562 10.9038 19.7009 12.6021C19.2456 14.3005 18.3511 15.8492 17.1072 17.0925C16.9688 17.2309 16.8265 17.365 16.6806 17.4947L10.2843 23.888C10.135 24.0373 9.8928 24.0373 9.74343 23.888L3.2486 17.3962C3.24094 17.3885 3.23367 17.3806 3.22679 17.3725C3.12782 17.2812 3.03058 17.1879 2.93514 17.0925C1.69128 15.8492 0.796749 14.3005 0.341464 12.6021C-0.0807813 11.027 -0.111424 9.37459 0.249537 7.78825C0.296385 7.58236 0.506875 7.46145 0.71092 7.51609L4.81187 8.61444C5.01592 8.66909 5.13547 8.87858 5.09652 9.08611C4.95849 9.82145 4.98676 10.5801 5.18133 11.3059C5.40897 12.1551 5.85624 12.9294 6.47817 13.5511C6.4909 13.5638 6.50369 13.5764 6.51655 13.589L9.74343 10.3636C9.8928 10.2143 10.135 10.2143 10.2843 10.3636L13.5184 13.5962C13.5338 13.5813 13.5491 13.5662 13.5642 13.5511C14.1862 12.9294 14.6334 12.1551 14.8611 11.3059C15.0887 10.4567 15.0887 9.56258 14.8611 8.71339C14.6665 7.98759 14.3115 7.31646 13.8241 6.74862C13.6866 6.58837 13.6853 6.34719 13.8347 6.19789L16.8368 3.19715Z" fill="white"/>
<path d="M1.54554 4.67393C1.43302 4.85262 1.49633 5.08688 1.67927 5.19245L5.35608 7.3143C5.53902 7.41987 5.77176 7.35625 5.89102 7.18198C5.99395 7.03157 6.10502 6.88689 6.22372 6.74859C6.36127 6.58833 6.36252 6.34717 6.21314 6.19786L3.21104 3.19712C3.06167 3.04782 2.8189 3.04732 2.67534 3.20221C2.25401 3.6568 1.87579 4.14948 1.54554 4.67393Z" fill="white"/>
</svg>
