<svg width="121" height="35" viewBox="0 0 121 35" fill="none" xmlns="http://www.w3.org/2000/svg">
<path d="M45.6692 20.2111C46.5052 20.6678 47.4046 20.8962 48.3673 20.8962C50.3687 20.8962 51.3694 19.488 51.3694 16.6716C51.3694 14.2782 50.2631 13.0814 48.0506 13.0814C47.0963 13.0814 46.3025 13.1406 45.6692 13.2591V20.2111ZM42.3124 10.9121C44.0774 10.5484 45.9436 10.3666 47.9113 10.3666C52.4292 10.3666 54.6881 12.4767 54.6881 16.697C54.6881 21.3571 52.5854 23.6871 48.3799 23.6871C47.4848 23.6871 46.5812 23.4757 45.6692 23.0528V28.5079H42.3124V10.9121Z" fill="currentColor"/>
<path d="M56.6008 19.5387C56.6008 16.8915 58.5262 15.5679 62.377 15.5679C63.2806 15.5679 64.1842 15.6525 65.0877 15.8217V14.8195C65.0877 13.627 64.2306 13.0307 62.5163 13.0307C61.0639 13.0307 59.4509 13.2421 57.6775 13.665V11.0009C59.4509 10.578 61.0639 10.3666 62.5163 10.3666C66.4685 10.3666 68.4445 11.8297 68.4445 14.756V23.6871H66.4938L65.3031 22.4946C64.1462 23.2896 62.871 23.6871 61.4776 23.6871C58.2264 23.6871 56.6008 22.3043 56.6008 19.5387ZM65.0877 18.1052C64.2433 17.936 63.3397 17.8515 62.377 17.8515C60.7641 17.8515 59.9576 18.4012 59.9576 19.5007C59.9576 20.6847 60.6332 21.2767 61.9843 21.2767C63.099 21.2767 64.1335 20.93 65.0877 20.2365V18.1052Z" fill="currentColor"/>
<path d="M71.6239 23.6871V10.3666H74.2207L74.6387 12.3203C75.9138 11.0178 77.3663 10.3666 78.9961 10.3666C82.146 10.3666 83.7209 12.0073 83.7209 15.2888V23.6871H80.3642V15.2888C80.3642 13.8172 79.6337 13.0814 78.1728 13.0814C77.0834 13.0814 76.0194 13.517 74.9807 14.3881V23.6871H71.6239Z" fill="currentColor"/>
<path d="M86.9004 23.0528V20.2618C88.3782 20.8539 90.084 21.1499 92.0178 21.1499C93.4619 21.1499 94.1839 20.6847 94.1839 19.7544C94.1839 18.8664 93.6983 18.4223 92.7272 18.4223H90.3205C87.6182 18.4223 86.267 17.0903 86.267 14.4262C86.267 11.6352 88.2389 10.2397 92.1825 10.2397C93.8546 10.2397 95.4295 10.4935 96.9073 11.0009V13.7919C95.4295 13.1999 93.825 12.9038 92.0938 12.9038C90.2782 12.9038 89.3704 13.369 89.3704 14.2993C89.3704 15.1874 89.8982 15.6314 90.9538 15.6314H93.1072C96.0629 15.6314 97.5407 16.9634 97.5407 19.6275C97.5407 22.4185 95.6575 23.814 91.8912 23.814C90.0418 23.814 88.3782 23.5603 86.9004 23.0528Z" fill="currentColor"/>
<path d="M99.2634 19.5387C99.2634 16.8915 101.189 15.5679 105.04 15.5679C105.943 15.5679 106.847 15.6525 107.75 15.8217V14.8195C107.75 13.627 106.893 13.0307 105.179 13.0307C103.726 13.0307 102.113 13.2421 100.34 13.665V11.0009C102.113 10.578 103.726 10.3666 105.179 10.3666C109.131 10.3666 111.107 11.8297 111.107 14.756V23.6871H109.156L107.966 22.4946C106.809 23.2896 105.534 23.6871 104.14 23.6871C100.889 23.6871 99.2634 22.3043 99.2634 19.5387ZM107.75 18.1052C106.906 17.936 106.002 17.8515 105.04 17.8515C103.427 17.8515 102.62 18.4012 102.62 19.5007C102.62 20.6847 103.296 21.2767 104.647 21.2767C105.762 21.2767 106.796 20.93 107.75 20.2365V18.1052Z" fill="currentColor"/>
<path d="M114.286 23.6871V10.3666H116.883L117.301 12.0666C118.467 10.9332 119.7 10.3666 121 10.3666V13.0814C119.75 13.0814 118.631 13.6016 117.643 14.6419V23.6871H114.286Z" fill="currentColor"/>
<path d="M14.5864 0.510704C14.5864 0.223722 14.8188 -0.00988793 15.1052 0.000322452C17.3116 0.0789943 19.4716 0.658638 21.4218 1.69542C21.6749 1.82997 21.7595 2.14866 21.6162 2.39719L18.4905 7.81939C18.3472 8.06792 18.0306 8.15126 17.7728 8.02581C16.9372 7.61904 16.0316 7.37601 15.1048 7.30983C14.819 7.28942 14.5864 7.0587 14.5864 6.77172L14.5864 0.510704Z" fill="currentColor"/>
<path d="M7.54859 2.39719C7.40532 2.14865 7.48993 1.82998 7.74303 1.69542C8.56183 1.26012 9.42023 0.90402 10.3066 0.631971C10.5805 0.547878 10.8653 0.713296 10.9395 0.990499L12.5575 7.03818C12.6317 7.31538 12.4667 7.59853 12.1959 7.69233C11.9215 7.78736 11.6531 7.89872 11.392 8.02581C11.1343 8.15126 10.8176 8.06792 10.6744 7.81939L7.54859 2.39719Z" fill="currentColor"/>
<path d="M24.5201 4.63495C24.7227 4.43202 25.052 4.4314 25.2473 4.64142C26.8697 6.38626 28.0427 8.50466 28.6602 10.8128C29.3225 13.2884 29.3225 15.895 28.6602 18.3706C27.9979 20.8462 26.6965 23.1035 24.887 24.9158C24.6854 25.1177 24.4783 25.3133 24.266 25.5023L14.9347 34.8478C14.7321 35.0507 14.4035 35.0507 14.2009 34.8478L4.69934 25.3318C4.69152 25.324 4.68401 25.316 4.6768 25.3078C4.53883 25.1799 4.40318 25.0492 4.26993 24.9158C2.46041 23.1035 1.15908 20.8462 0.496749 18.3706C-0.120769 16.0625 -0.162551 13.6405 0.371403 11.317C0.435672 11.0373 0.721128 10.873 0.997912 10.9472L7.03645 12.5677C7.31323 12.642 7.47555 12.9267 7.42126 13.2085C7.21252 14.2919 7.2513 15.411 7.53761 16.4811C7.86877 17.7189 8.51944 18.8476 9.4242 19.7537C9.44272 19.7723 9.46132 19.7907 9.48002 19.809L14.2009 15.081C14.4035 14.8781 14.7321 14.8781 14.9347 15.081L19.6661 19.8196C19.6885 19.7978 19.7107 19.7758 19.7327 19.7537C20.6375 18.8476 21.2882 17.7189 21.6193 16.4811C21.9505 15.2433 21.9505 13.94 21.6193 12.7022C21.333 11.6321 20.8079 10.6435 20.0863 9.80979C19.8986 9.59295 19.897 9.26508 20.0996 9.06216L24.5201 4.63495Z" fill="currentColor"/>
<path d="M2.22845 6.84605C2.07644 7.08932 2.16226 7.40767 2.41042 7.55116L7.82442 10.6817C8.07258 10.8252 8.38838 10.7388 8.54894 10.5011C8.7116 10.2603 8.88848 10.0294 9.07863 9.80974C9.26633 9.5929 9.26789 9.26504 9.06527 9.06212L4.64476 4.63491C4.44214 4.43198 4.11289 4.43135 3.91761 4.64137C3.28585 5.3208 2.72023 6.05904 2.22845 6.84605Z" fill="currentColor"/>
</svg>
