<svg width="64" height="32" viewBox="0 0 64 32" fill="none" xmlns="http://www.w3.org/2000/svg">
<path d="M9.1935 16.8007C10.5235 16.8007 11.7278 17.1083 12.8062 17.7235C13.9026 18.3387 14.7653 19.2253 15.3944 20.3834C16.0414 21.5233 16.365 22.8533 16.365 24.3732C16.365 25.8931 16.0414 27.2321 15.3944 28.3902C14.7653 29.5482 13.9026 30.4439 12.8062 31.0772C11.7278 31.6924 10.5235 32 9.1935 32C7.27032 32 5.83243 31.43 4.87983 30.2901V31.7557H0V11.6166H5.12248V18.3206C6.11103 17.3073 7.46803 16.8007 9.1935 16.8007ZM8.11508 27.9016C9.01376 27.9016 9.75068 27.594 10.3258 26.9788C10.901 26.3455 11.1886 25.477 11.1886 24.3732C11.1886 23.2875 10.901 22.4371 10.3258 21.8219C9.75068 21.2067 9.01376 20.8991 8.11508 20.8991C7.2164 20.8991 6.47948 21.2067 5.90433 21.8219C5.32917 22.4371 5.0416 23.2875 5.0416 24.3732C5.0416 25.477 5.32917 26.3455 5.90433 26.9788C6.47948 27.594 7.2164 27.9016 8.11508 27.9016Z" fill="currentColor"/>
<path d="M23.6257 18.8092C24.147 18.1397 24.821 17.6421 25.6478 17.3164C26.4925 16.9726 27.4541 16.8007 28.5325 16.8007V21.4419C28.0652 21.3876 27.6788 21.3605 27.3732 21.3605C26.2768 21.3605 25.4141 21.659 24.785 22.2561C24.1739 22.8533 23.8684 23.767 23.8684 24.9975V31.7557H18.7459V17.045H23.6257V18.8092Z" fill="currentColor"/>
<path d="M37.848 32C36.2843 32 34.8734 31.6743 33.6152 31.0229C32.3571 30.3715 31.3685 29.4668 30.6496 28.3087C29.9486 27.1507 29.5981 25.8388 29.5981 24.3732C29.5981 22.9256 29.9486 21.6228 30.6496 20.4648C31.3685 19.3068 32.3481 18.4111 33.5882 17.7778C34.8464 17.1264 36.2663 16.8007 37.848 16.8007C39.4297 16.8007 40.8496 17.1264 42.1077 17.7778C43.3659 18.4111 44.3454 19.3068 45.0464 20.4648C45.7474 21.6048 46.0979 22.9075 46.0979 24.3732C46.0979 25.8388 45.7474 27.1507 45.0464 28.3087C44.3454 29.4668 43.3659 30.3715 42.1077 31.0229C40.8496 31.6743 39.4297 32 37.848 32ZM37.848 27.9016C38.7467 27.9016 39.4836 27.594 40.0587 26.9788C40.6339 26.3455 40.9215 25.477 40.9215 24.3732C40.9215 23.2875 40.6339 22.4371 40.0587 21.8219C39.4836 21.2067 38.7467 20.8991 37.848 20.8991C36.9493 20.8991 36.2124 21.2067 35.6372 21.8219C35.0621 22.4371 34.7745 23.2875 34.7745 24.3732C34.7745 25.477 35.0621 26.3455 35.6372 26.9788C36.2124 27.594 36.9493 27.9016 37.848 27.9016Z" fill="currentColor"/>
<path d="M64 11.6166V31.7557H59.1202V30.2901C58.1676 31.43 56.7387 32 54.8335 32C53.5034 32 52.2902 31.6924 51.1938 31.0772C50.0974 30.4439 49.2257 29.5482 48.5786 28.3902C47.9496 27.2321 47.635 25.8931 47.635 24.3732C47.635 22.8533 47.9496 21.5233 48.5786 20.3834C49.2257 19.2253 50.0974 18.3387 51.1938 17.7235C52.2902 17.1083 53.5034 16.8007 54.8335 16.8007C56.5769 16.8007 57.9249 17.3073 58.8775 18.3206V11.6166H64ZM55.9119 27.9016C56.7926 27.9016 57.5205 27.594 58.0957 26.9788C58.6708 26.3455 58.9584 25.477 58.9584 24.3732C58.9584 23.2875 58.6708 22.4371 58.0957 21.8219C57.5385 21.2067 56.8106 20.8991 55.9119 20.8991C55.0132 20.8991 54.2763 21.2067 53.7011 21.8219C53.126 22.4371 52.8384 23.2875 52.8384 24.3732C52.8384 25.477 53.126 26.3455 53.7011 26.9788C54.2763 27.594 55.0132 27.9016 55.9119 27.9016Z" fill="currentColor"/>
<path fill-rule="evenodd" clip-rule="evenodd" d="M30.5356 0.0675303C28.1399 -0.292443 25.9196 1.40387 25.6193 3.8236C25.3412 6.06515 26.8054 8.08028 28.8848 8.58348C29.0145 8.61487 29.1087 8.73122 29.1044 8.86546L28.9803 12.7125C28.9556 13.4789 29.566 14.1137 30.3276 14.1137H44.8154C45.5811 14.1137 46.1931 13.4723 46.1623 12.7021L46.0037 8.72832C45.9987 8.60472 46.0778 8.49422 46.1936 8.4527C48.0668 7.78083 49.3194 5.84856 49.02 3.73709C48.6816 1.35085 46.4808 -0.303816 44.112 0.0468882L38.5084 0.87648C37.6437 1.00449 36.765 1.00354 35.9006 0.873661L30.5356 0.0675303ZM33.5387 5.15691C33.0176 5.15691 32.5951 5.58222 32.5951 6.10687V9.63528C32.5951 10.1599 33.0176 10.5852 33.5387 10.5852C34.0599 10.5852 34.4824 10.1599 34.4824 9.63528V6.10687C34.4824 5.58222 34.0599 5.15691 33.5387 5.15691ZM37.3132 10.5852C36.7921 10.5852 36.3696 10.1599 36.3696 9.63528V6.10687C36.3696 5.58222 36.7921 5.15691 37.3132 5.15691C37.8343 5.15691 38.2568 5.58222 38.2568 6.10687V9.63528C38.2568 10.1599 37.8343 10.5852 37.3132 10.5852ZM41.0877 5.15691C40.5665 5.15691 40.144 5.58222 40.144 6.10687V9.63528C40.144 10.1599 40.5665 10.5852 41.0877 10.5852C41.6088 10.5852 42.0313 10.1599 42.0313 9.63528V6.10687C42.0313 5.58222 41.6088 5.15691 41.0877 5.15691Z" fill="currentColor"/>
</svg>
